<svg xmlns="http://www.w3.org/2000/svg" viewBox="0 0 100 100"><rect width="100" height="100" fill="#25D366"/><path d="M50 15 C32 15 18 29 18 47 C18 53 20 59 23 64 L20 85 L42 73 C47 75 52 76 57 76 C75 76 89 62 89 44 C89 26 75 15 50 15 Z M35 42 C34 42 33 41 32 42 C31 43 30 44 30 45 C30 50 33 56 38 60 C42 64 48 67 55 67 C56 67 57 67 58 67 C59 66 60 65 60 64 C60 63 59 62 58 61 C57 60 56 59 55 58 C54 58 53 57 52 58 C50 59 48 60 46 58 C44 56 42 54 42 52 C42 50 44 48 45 47 C46 46 47 45 46 44 C45 42 40 42 35 42 Z M65 50 C65 50 66 49 67 50 C68 51 69 52 69 53 C69 54 68 55 67 56 C66 57 65 58 64 57 C63 56 62 55 62 54 C62 52 63 51 65 50 Z" fill="white"/></svg>